<svg width="6740" height="2051" viewBox="0 0 6740 2051" fill="none" xmlns="http://www.w3.org/2000/svg">
<path d="M733.281 0.21875C1026.25 0.21875 1221.56 195.531 1319.22 586.156L1538.95 1298.07L1758.67 586.156C1856.33 195.531 2051.64 0.21875 2344.61 0.21875C2832.89 0.21875 3077.03 244.359 3077.03 732.641V2051H2491.09V659.398C2491.09 610.57 2466.68 586.156 2417.85 586.156C2369.02 586.156 2320.2 683.812 2271.37 879.125L1978.4 1758.03C1929.57 1953.34 1807.5 2051 1612.19 2051H1465.7C1270.39 2051 1148.32 1953.34 1099.49 1758.03L806.523 879.125C757.695 683.812 708.867 586.156 660.039 586.156C611.211 586.156 586.797 610.57 586.797 659.398V2051H0.859375V732.641C0.859375 244.359 245 0.21875 733.281 0.21875ZM3223.52 0.21875H3809.45V2051H3223.52V0.21875ZM6006.72 1262.91V732.641C6006.72 537.328 5909.06 439.672 5713.75 439.672H4834.84C4639.53 439.672 4541.88 537.328 4541.88 732.641V1318.58C4541.88 1513.89 4639.53 1611.55 4834.84 1611.55H5608.28L4834.84 805.883H5567.27L6006.72 1262.91ZM6011.11 2030.49C5922.25 2044.16 5823.12 2051 5713.75 2051H4834.84C4248.91 2051 3955.94 1806.86 3955.94 1318.58V732.641C3955.94 244.359 4248.91 0.21875 4834.84 0.21875H5713.75C6299.69 0.21875 6592.66 244.359 6592.66 732.641V1465.06C6592.66 1590.06 6562.87 1695.04 6503.3 1780L6739.14 2051H6006.72L6011.11 2030.49Z" fill="black"/>
</svg>
