<svg width="5660" height="3973" viewBox="0 0 5660 3973" fill="none" xmlns="http://www.w3.org/2000/svg">
<path d="M380.301 366H350.301C150.301 386 50.3008 396 45.3008 396C20.3008 401 5.30078 421 0.300781 451C5.30078 496 25.3008 516 65.3008 516H160.301C165.301 511 170.301 511 175.301 511C180.301 506 185.301 506 190.301 506C215.301 506 230.301 501 240.301 496V661C240.301 776 245.301 866 250.301 931C250.301 986 250.301 1066 255.301 1176C260.301 1286 260.301 1371 260.301 1426C260.301 1651 265.301 1991 280.301 2456V2476C265.301 2481 245.301 2481 215.301 2486C190.301 2491 165.301 2491 150.301 2496C135.301 2501 125.301 2516 120.301 2541C125.301 2576 140.301 2586 170.301 2581C195.301 2576 235.301 2576 290.301 2571C295.301 2571 305.301 2566 320.301 2551H330.301C375.301 2576 420.301 2571 460.301 2541H645.301C685.301 2546 710.301 2546 715.301 2541C750.301 2531 755.301 2511 735.301 2486C730.301 2481 715.301 2476 700.301 2471C685.301 2471 675.301 2471 665.301 2466C635.301 2466 615.301 2461 600.301 2456H520.301V2446C540.301 2041 545.301 1671 540.301 1336C540.301 1276 540.301 1186 535.301 1061C530.301 941 530.301 851 530.301 791C530.301 626 525.301 521 510.301 476H520.301C590.301 476 640.301 471 675.301 466C690.301 461 700.301 446 710.301 431C725.301 396 710.301 371 675.301 356H520.301C465.301 356 415.301 361 380.301 366ZM2462.37 1406C2462.37 1391 2457.37 1381 2447.37 1366C2422.37 1351 2407.37 1361 2402.37 1386C2387.37 1436 2372.37 1491 2347.37 1546C2222.37 1851 2002.37 2076 1697.37 2226C1702.37 2211 1702.37 2181 1702.37 2136C1707.37 2096 1707.37 2066 1707.37 2046C1712.37 1931 1732.37 1751 1757.37 1516C1762.37 1491 1767.37 1451 1782.37 1396C1822.37 1201 1812.37 1076 1757.37 1011C1732.37 976 1697.37 976 1652.37 1001C1637.37 1006 1622.37 1016 1602.37 1041C1547.37 956 1467.37 916 1362.37 911C1327.37 911 1287.37 921 1247.37 936C1067.37 1011 922.371 1211 807.371 1536C762.371 1701 742.371 1841 747.371 1961C752.371 2146 787.371 2266 857.371 2326C862.371 2331 872.371 2336 882.371 2341C982.371 2416 1082.37 2421 1177.37 2356C1257.37 2291 1332.37 2181 1402.37 2021C1407.37 2011 1412.37 1996 1417.37 1981C1432.37 1956 1437.37 1936 1442.37 1921C1437.37 1956 1432.37 2016 1432.37 2096C1407.37 2561 1412.37 2941 1442.37 3236C1467.37 3441 1517.37 3616 1592.37 3751C1672.37 3911 1777.37 3986 1907.37 3971C1987.37 3956 2052.37 3911 2102.37 3831C2182.37 3691 2202.37 3496 2157.37 3246C2152.37 3236 2152.37 3226 2147.37 3211C2092.37 2996 1942.37 2746 1697.37 2456V2296C1762.37 2266 1827.37 2231 1892.37 2191C2177.37 2001 2367.37 1741 2462.37 1406ZM1422.37 1801C1372.37 1926 1307.37 2036 1222.37 2136C1147.37 2216 1092.37 2241 1067.37 2216L1037.37 2086C1007.37 1846 1052.37 1621 1167.37 1416C1167.37 1411 1167.37 1406 1172.37 1401C1177.37 1396 1177.37 1391 1182.37 1386C1257.37 1266 1327.37 1196 1402.37 1176C1467.37 1161 1517.37 1171 1542.37 1196V1216C1527.37 1271 1517.37 1361 1502.37 1486C1487.37 1576 1477.37 1646 1472.37 1691C1467.37 1701 1457.37 1721 1442.37 1751C1437.37 1776 1427.37 1791 1422.37 1801ZM2097.37 3506C2092.37 3541 2087.37 3586 2077.37 3631C2032.37 3781 1972.37 3846 1887.37 3821C1822.37 3796 1772.37 3681 1747.37 3466C1712.37 3171 1692.37 2871 1687.37 2571C1822.37 2741 1927.37 2901 1997.37 3056C2062.37 3191 2092.37 3341 2097.37 3506ZM3216.39 1426C3161.39 1721 3066.39 1971 2931.39 2166C2881.39 2246 2826.39 2296 2771.39 2316C2716.39 2326 2666.39 2291 2621.39 2216C2586.39 2141 2556.39 2026 2541.39 1881C2491.39 1376 2521.39 811 2631.39 176C2636.39 156 2636.39 136 2631.39 116C2616.39 50.9999 2571.39 10.9998 2496.39 0.999931C2421.39 -4 2381.39 25.9999 2366.39 95.9999C2296.39 451 2256.39 816 2246.39 1186C2246.39 1416 2251.39 1586 2256.39 1701V1716C2271.39 1941 2296.39 2091 2336.39 2166C2411.39 2321 2516.39 2411 2651.39 2446C2761.39 2461 2861.39 2411 2951.39 2306C3006.39 2231 3076.39 2106 3156.39 1921C3221.39 1751 3266.39 1591 3286.39 1446C3281.39 1431 3271.39 1416 3256.39 1401C3231.39 1386 3216.39 1396 3216.39 1426ZM4720.65 1466C4675.65 1671 4615.65 1856 4535.65 2011C4475.65 2126 4420.65 2201 4365.65 2236C4310.65 2271 4270.65 2276 4235.65 2256C4210.65 2231 4200.65 2201 4195.65 2166C4185.65 2111 4180.65 2016 4175.65 1891V1581C4180.65 1516 4185.65 1421 4195.65 1286C4200.65 1271 4200.65 1256 4205.65 1236C4230.65 1096 4230.65 1006 4215.65 961C4195.65 911 4155.65 891 4095.65 901C4025.65 916 3975.65 956 3950.65 1011C3870.65 936 3775.65 911 3670.65 941C3630.65 951 3590.65 966 3550.65 991C3385.65 1086 3255.65 1261 3165.65 1516C3160.65 1531 3155.65 1551 3150.65 1576C3065.65 1861 3100.65 2081 3255.65 2236C3330.65 2311 3415.65 2336 3505.65 2301C3615.65 2256 3710.65 2146 3790.65 1971L3880.65 1761C3880.65 2056 3945.65 2261 4080.65 2366C4165.65 2426 4250.65 2431 4345.65 2376C4370.65 2361 4390.65 2341 4415.65 2316C4415.65 2311 4450.65 2251 4525.65 2136C4640.65 1911 4725.65 1691 4770.65 1486C4780.65 1466 4775.65 1451 4760.65 1441C4740.65 1436 4725.65 1441 4720.65 1466ZM3790.65 1851C3725.65 1996 3660.65 2096 3585.65 2156C3560.65 2181 3535.65 2191 3510.65 2191C3445.65 2196 3410.65 2126 3405.65 1971C3400.65 1751 3460.65 1551 3585.65 1366C3660.65 1256 3735.65 1201 3810.65 1206C3855.65 1216 3895.65 1251 3920.65 1306C3905.65 1421 3900.65 1506 3900.65 1561C3875.65 1646 3835.65 1746 3790.65 1851ZM5589.44 1426C5534.44 1721 5439.44 1971 5304.44 2166C5254.44 2246 5199.44 2296 5144.44 2316C5089.44 2326 5039.44 2291 4994.44 2216C4959.44 2141 4929.44 2026 4914.44 1881C4864.44 1376 4894.44 811 5004.44 176C5009.44 156 5009.44 136 5004.44 116C4989.44 50.9999 4944.44 10.9998 4869.44 0.999931C4794.44 -4 4754.44 25.9999 4739.44 95.9999C4669.44 451 4629.44 816 4619.44 1186C4619.44 1416 4624.44 1586 4629.44 1701V1716C4644.44 1941 4669.44 2091 4709.44 2166C4784.44 2321 4889.44 2411 5024.44 2446C5134.44 2461 5234.44 2411 5324.44 2306C5379.44 2231 5449.44 2106 5529.44 1921C5594.44 1751 5639.44 1591 5659.44 1446C5654.44 1431 5644.44 1416 5629.44 1401C5604.44 1386 5589.44 1396 5589.44 1426Z" fill="black"/>
</svg>
