<svg width="8328" height="2488" viewBox="0 0 8328 2488" fill="none" xmlns="http://www.w3.org/2000/svg">
<path d="M380.781 162H350.781C150.781 182 50.7813 192 45.7813 192C20.7813 197 5.78125 217 0.78125 247C5.78125 292 25.7813 312 65.7813 312H160.781C165.781 307 170.781 307 175.781 307C180.781 302 185.781 302 190.781 302C215.781 302 230.781 297 240.781 292V457C240.781 572 245.781 662 250.781 727C250.781 782 250.781 862 255.781 972C260.781 1082 260.781 1167 260.781 1222C260.781 1447 265.781 1787 280.781 2252V2272C265.781 2277 245.781 2277 215.781 2282C190.781 2287 165.781 2287 150.781 2292C135.781 2297 125.781 2312 120.781 2337C125.781 2372 140.781 2382 170.781 2377C195.781 2372 235.781 2372 290.781 2367C295.781 2367 305.781 2362 320.781 2347H330.781C375.781 2372 420.781 2367 460.781 2337H645.781C685.781 2342 710.781 2342 715.781 2337C750.781 2327 755.781 2307 735.781 2282C730.781 2277 715.781 2272 700.781 2267C685.781 2267 675.781 2267 665.781 2262C635.781 2262 615.781 2257 600.781 2252H520.781V2242C540.781 1837 545.781 1467 540.781 1132C540.781 1072 540.781 982 535.781 857C530.781 737 530.781 647 530.781 587C530.781 422 525.781 317 510.781 272H520.781C590.781 272 640.781 267 675.781 262C690.781 257 700.781 242 710.781 227C725.781 192 710.781 167 675.781 152H520.781C465.781 152 415.781 157 380.781 162ZM2272.85 2152C2262.85 2157 2247.85 2167 2227.85 2182L2207.85 2202C2197.85 2207 2182.85 2212 2167.85 2217C2152.85 2222 2137.85 2227 2127.85 2232C2082.85 2237 2017.85 2217 1937.85 2182L1917.85 2162C1972.85 2067 2007.85 1997 2027.85 1952C2042.85 1917 2057.85 1877 2072.85 1832C2187.85 1467 2182.85 1072 2057.85 647C1982.85 422 1872.85 267 1727.85 192C1552.85 102 1387.85 107 1232.85 212C1107.85 297 1002.85 417 917.852 577C772.852 852 717.852 1142 757.852 1447C762.852 1462 767.852 1472 772.852 1487C807.852 1522 847.852 1527 897.852 1497C897.852 1512 897.852 1527 902.852 1552C907.852 1577 907.852 1592 907.852 1607C942.852 1862 1017.85 2067 1127.85 2212C1142.85 2227 1157.85 2247 1182.85 2272C1332.85 2417 1492.85 2457 1662.85 2397C1727.85 2372 1792.85 2327 1847.85 2262C1852.85 2267 1867.85 2272 1882.85 2282C1897.85 2292 1912.85 2297 1917.85 2302C2002.85 2332 2082.85 2337 2157.85 2322C2162.85 2317 2167.85 2317 2172.85 2317C2262.85 2292 2317.85 2252 2332.85 2192V2177C2317.85 2142 2297.85 2137 2272.85 2152ZM1352.85 2052C1262.85 1962 1202.85 1802 1177.85 1567C1172.85 1502 1167.85 1402 1167.85 1262C1172.85 1227 1177.85 1177 1187.85 1112C1197.85 1047 1202.85 997 1207.85 962C1202.85 927 1187.85 897 1157.85 872C1102.85 827 1052.85 822 1007.85 862C1047.85 717 1112.85 592 1197.85 477C1307.85 332 1427.85 257 1552.85 262C1697.85 282 1812.85 392 1897.85 597C1902.85 602 1902.85 612 1907.85 627C2027.85 977 2047.85 1322 1967.85 1667C1922.85 1837 1867.85 1962 1797.85 2042C1792.85 2037 1777.85 2022 1762.85 1997C1747.85 1972 1732.85 1957 1717.85 1942C1687.85 1892 1657.85 1867 1632.85 1862C1622.85 1867 1607.85 1872 1592.85 1882C1577.85 1922 1597.85 1977 1652.85 2047C1677.85 2077 1692.85 2097 1702.85 2112L1672.85 2122C1552.85 2167 1447.85 2147 1352.85 2052ZM4149.77 1882C4124.77 1967 4094.77 2017 4069.77 2042C4029.77 2087 3959.77 2127 3859.77 2152C3709.77 2187 3539.77 2167 3344.77 2102C3319.77 2097 3279.77 2077 3224.77 2052C3184.77 2037 3154.77 2022 3129.77 2012C3164.77 1867 3184.77 1722 3189.77 1587C3194.77 1392 3194.77 957 3179.77 272C3179.77 257 3174.77 237 3169.77 222C3144.77 157 3094.77 127 3019.77 137C2944.77 152 2904.77 197 2899.77 272V1282C2904.77 1567 2889.77 1777 2859.77 1912C2674.77 1857 2519.77 1882 2404.77 1982C2399.77 1987 2394.77 1997 2384.77 2007C2309.77 2102 2309.77 2212 2394.77 2332L2419.77 2357C2519.77 2467 2639.77 2497 2774.77 2447C2889.77 2412 2979.77 2327 3049.77 2192C3114.77 2207 3184.77 2217 3259.77 2222C3404.77 2242 3554.77 2252 3704.77 2252C3734.77 2247 3769.77 2247 3804.77 2242C4099.77 2202 4279.77 2097 4344.77 1932C4349.77 1927 4349.77 1922 4354.77 1917C4374.77 1862 4354.77 1832 4294.77 1817C4229.77 1802 4179.77 1822 4149.77 1882ZM2544.77 2192L2534.77 2162C2539.77 2127 2564.77 2107 2614.77 2092C2639.77 2087 2694.77 2097 2784.77 2112C2779.77 2122 2774.77 2127 2774.77 2132L2749.77 2157C2654.77 2252 2589.77 2262 2544.77 2192ZM5374.38 1427C5569.38 1487 5734.38 1507 5869.38 1487V1507V1537C5884.38 1877 5954.38 2107 6079.38 2232C6114.38 2262 6154.38 2287 6209.38 2307C6344.38 2352 6424.38 2327 6454.38 2222C6434.38 2197 6419.38 2187 6404.38 2192C6379.38 2217 6349.38 2232 6314.38 2232C6249.38 2232 6214.38 2197 6199.38 2132C6194.38 2107 6189.38 2057 6189.38 1992C6189.38 1962 6184.38 1907 6169.38 1827C6154.38 1732 6144.38 1582 6129.38 1367C6164.38 1332 6194.38 1307 6209.38 1282C6209.38 1272 6209.38 1262 6204.38 1252C6194.38 1222 6179.38 1217 6159.38 1232C6154.38 1232 6149.38 1237 6144.38 1242C6139.38 1247 6134.38 1247 6129.38 1252V1192C6129.38 912 6124.38 702 6119.38 557C6119.38 552 6119.38 522 6114.38 472C6104.38 232 6054.38 81.9998 5959.38 22C5884.38 -18.0001 5819.38 -3.00026 5764.38 72C5759.38 81.9998 5729.38 157 5674.38 292C5579.38 512 5514.38 682 5474.38 807C5459.38 862 5434.38 942 5399.38 1052C5364.38 1162 5339.38 1247 5324.38 1302C5179.38 1257 5084.38 1237 5029.38 1242C5004.38 1242 4979.38 1247 4949.38 1252C4849.38 1287 4814.38 1342 4839.38 1417C4844.38 1432 4854.38 1442 4869.38 1442C4889.38 1437 4899.38 1427 4899.38 1407C4899.38 1402 4904.38 1392 4909.38 1382C4934.38 1332 4994.38 1317 5099.38 1342C5134.38 1347 5194.38 1362 5274.38 1387C5279.38 1392 5284.38 1392 5294.38 1397C5249.38 1562 5189.38 1737 5119.38 1912C5114.38 1927 5104.38 1947 5094.37 1972C5079.38 2002 5069.38 2027 5064.38 2042C4954.38 2302 4829.38 2412 4694.38 2377C4674.38 2372 4654.38 2367 4639.38 2357C4564.38 2307 4534.38 2227 4544.38 2112C4559.38 2012 4609.38 1932 4694.38 1872C4699.38 1867 4704.38 1852 4704.38 1832C4699.38 1802 4684.38 1792 4664.38 1807C4649.38 1812 4629.38 1822 4614.38 1832C4484.38 1907 4424.37 2022 4434.38 2182C4439.38 2227 4449.38 2267 4469.38 2307C4524.38 2432 4614.38 2492 4734.38 2487C4754.38 2487 4779.38 2482 4804.38 2477C4909.38 2442 5014.38 2327 5119.38 2122C5164.38 2017 5239.38 1812 5344.38 1517L5374.38 1427ZM5789.38 232C5814.38 362 5829.38 547 5829.38 787C5829.38 1062 5834.38 1262 5839.38 1397H5819.38C5719.37 1412 5579.38 1392 5404.38 1342C5404.38 1337 5399.38 1337 5389.38 1337C5384.38 1332 5379.38 1332 5374.38 1332C5384.38 1302 5394.38 1267 5404.38 1232C5529.38 842 5604.38 622 5624.38 567C5629.38 552 5644.38 522 5659.38 482C5674.38 447 5689.38 417 5694.38 397C5699.38 382 5719.37 352 5744.38 317C5764.38 282 5779.38 252 5789.38 232ZM8114.61 1882C8089.61 1967 8059.61 2017 8034.61 2042C7994.61 2087 7924.61 2127 7824.61 2152C7674.61 2187 7504.61 2167 7309.61 2102C7284.61 2097 7244.61 2077 7189.61 2052C7149.61 2037 7119.61 2022 7094.61 2012C7129.61 1867 7149.61 1722 7154.61 1587C7159.61 1392 7159.61 957 7144.61 272C7144.61 257 7139.61 237 7134.61 222C7109.61 157 7059.61 127 6984.61 137C6909.61 152 6869.61 197 6864.61 272V1282C6869.61 1567 6854.61 1777 6824.61 1912C6639.61 1857 6484.61 1882 6369.61 1982C6364.61 1987 6359.61 1997 6349.61 2007C6274.61 2102 6274.61 2212 6359.61 2332L6384.61 2357C6484.61 2467 6604.61 2497 6739.61 2447C6854.61 2412 6944.61 2327 7014.61 2192C7079.61 2207 7149.61 2217 7224.61 2222C7369.61 2242 7519.61 2252 7669.61 2252C7699.61 2247 7734.61 2247 7769.61 2242C8064.61 2202 8244.61 2097 8309.61 1932C8314.61 1927 8314.61 1922 8319.61 1917C8339.61 1862 8319.61 1832 8259.61 1817C8194.61 1802 8144.61 1822 8114.61 1882ZM6509.61 2192L6499.61 2162C6504.61 2127 6529.61 2107 6579.61 2092C6604.61 2087 6659.61 2097 6749.61 2112C6744.61 2122 6739.61 2127 6739.61 2132L6714.61 2157C6619.61 2252 6554.61 2262 6509.61 2192Z" fill="black"/>
</svg>
